<mxfile host="app.diagrams.net" modified="2023-08-15T16:30:13.214Z" agent="Mozilla/5.0 (Windows NT 10.0; Win64; x64) AppleWebKit/537.36 (KHTML, like Gecko) Chrome/115.0.0.0 Safari/537.36 Edg/115.0.1901.203" version="21.3.0" etag="qQ5F88vShHy9qd2wSj2S" type="github">
  <diagram name="Page-1" id="CihTsrCf2k3IG29u-0Vq">
    <mxGraphModel>
      <root>
        <mxCell id="0" />
        <mxCell id="1" parent="0" />
      </root>
    </mxGraphModel>
  </diagram>
</mxfile>
